PathFileType	4	(X/Y/Z)	paretic_post_fc0300a5.trc
DataRate	CameraRate	NumFrames	NumMarkers	Units	OrigDataRate	OrigDataStartFrame	OrigNumFrames
56.76	56.76	16	11	cm	56.76	271	433
Frame#	Time	NOSE			LEFT_SHOULDER			RIGHT_SHOULDER			LEFT_ELBOW			RIGHT_ELBOW			LEFT_WRIST			RIGHT_WRIST			LEFT_HIP			RIGHT_HIP			LEFT_INDEX			RIGHT_INDEX		
		X1	Y1	Z1	X2	Y2	Z2	X3	Y3	Z3	X4	Y4	Z4	X5	Y5	Z5	X6	Y6	Z6	X7	Y7	Z7	X8	Y8	Z8	X9	Y9	Z9	X10	Y10	Z10	X11	Y11	Z11
306	5.390987903225807	12.892035	-66.764918	-28.286728	15.155397	-53.987107	11.804319	-16.007163	-60.319608	-2.619833	20.544327	-27.145605	12.008844	-23.342381	-22.179648	-15.510750	33.580242	-10.856652	5.158760	-32.265877	-2.696064	-31.438466	10.081671	-1.823781	12.140469	-9.680326	1.273216	-11.704918	34.577367	-8.641007	0.563314	-27.427485	-3.031386	-42.146267
307	5.408605510752689	12.803381	-66.633912	-28.228195	15.114183	-53.725419	11.847348	-16.098554	-60.283283	-2.627916	20.596938	-26.649922	11.697994	-23.532946	-22.171790	-15.703469	33.706929	-10.429302	4.389280	-32.689554	-2.675648	-31.794870	10.081653	-1.822073	12.122525	-9.679906	1.272165	-11.686593	34.713613	-8.345080	-0.333543	-28.006469	-3.004114	-42.563438
308	5.42622311827957	13.177476	-66.943016	-26.310903	15.355461	-54.040285	13.581044	-15.841387	-60.651448	-1.760762	20.674740	-27.100097	13.733619	-23.520866	-22.784357	-15.443698	34.508194	-10.929013	6.767043	-32.440810	-3.103527	-31.912586	10.085221	-1.805052	12.121265	-9.683242	1.255069	-11.685515	36.128916	-8.778143	2.035776	-27.590362	-3.203519	-42.679768
309	5.443840725806452	13.362517	-66.901973	-26.596242	15.362198	-53.968939	13.467429	-15.713921	-60.641684	-2.218040	20.810324	-27.055227	13.694920	-23.332017	-22.755573	-16.078745	34.797806	-10.852688	6.588464	-32.154635	-3.135907	-32.659915	10.079595	-1.786309	12.132196	-9.675883	1.237204	-11.699394	36.334950	-8.676957	1.819332	-27.180220	-3.214214	-43.537838
310	5.461458333333334	13.497327	-66.611207	-27.814180	15.405984	-53.879137	12.719759	-15.608127	-60.465512	-2.891171	20.872406	-27.019177	13.458140	-23.189729	-22.573559	-16.822617	34.770914	-10.788692	6.384882	-31.932741	-3.127973	-33.778441	10.079560	-1.783591	12.131931	-9.675752	1.235227	-11.699586	36.262548	-8.656658	1.581681	-26.844262	-3.232115	-44.751218
311	5.479075940860215	13.530379	-66.499316	-28.513966	15.606027	-53.736611	11.780345	-15.464128	-60.398189	-3.255266	21.034100	-26.912609	11.447694	-23.089662	-22.385043	-17.153467	34.733461	-10.804141	3.136374	-31.775772	-3.111835	-34.296705	10.077274	-1.779436	12.125186	-9.672770	1.231855	-11.695333	36.242806	-8.740275	-1.912013	-26.723606	-3.255745	-45.374476
312	5.496693548387097	13.521431	-66.351943	-28.743287	15.437727	-53.705191	11.830536	-15.473187	-60.364017	-3.355325	20.780130	-26.872844	11.562973	-23.115251	-22.373750	-17.318617	34.678413	-10.564361	3.815065	-31.655355	-3.115633	-34.438337	10.075700	-1.775068	12.131594	-9.670788	1.228852	-11.702236	36.193484	-8.363428	-1.041213	-26.541258	-3.270492	-45.488208
313	5.514311155913979	13.399531	-66.350514	-27.999803	15.213183	-53.759570	12.134921	-15.623333	-60.351764	-3.072149	20.774581	-27.005197	12.232199	-23.193921	-22.254080	-17.033611	34.510630	-10.563672	4.714314	-31.733060	-2.983126	-34.124531	10.074337	-1.788565	12.114248	-9.669590	1.241882	-11.681923	35.880795	-8.344417	-0.142425	-26.661126	-3.224265	-45.112626
314	5.5319287634408605	13.345000	-66.464238	-27.985784	15.205637	-53.827849	12.277777	-15.631196	-60.352582	-3.003551	20.687553	-27.058409	12.435219	-23.212140	-22.255781	-17.029192	34.455866	-10.600260	5.036845	-31.655934	-2.992440	-34.135946	10.073907	-1.790704	12.113668	-9.669303	1.244039	-11.681226	35.860786	-8.362491	0.195635	-26.547967	-3.252350	-45.114358
315	5.549546370967742	13.366569	-66.475321	-26.451290	15.258911	-53.826368	13.806962	-15.616241	-60.458982	-1.993244	20.752056	-27.057863	13.734601	-23.205280	-22.530220	-16.383051	34.497515	-10.610683	6.010892	-31.398733	-3.224081	-33.853299	10.072924	-1.771403	12.117987	-9.668195	1.222843	-11.686105	35.853065	-8.359933	1.068285	-26.006088	-3.436963	-44.843217
316	5.567163978494624	13.466586	-66.500579	-26.139299	15.401294	-53.796995	14.056595	-15.483115	-60.464250	-1.843474	20.807662	-27.039695	13.513858	-22.601327	-22.520642	-16.653033	34.452981	-10.629587	3.933954	-29.628891	-3.631033	-35.354315	10.072445	-1.729497	12.126101	-9.667290	1.179629	-11.694298	35.585756	-8.355981	-1.429983	-23.715145	-3.971272	-46.491726
317	5.5847815860215055	13.519288	-66.487456	-26.148509	15.395729	-53.630405	14.041512	-15.482896	-60.406043	-1.858336	20.805238	-26.719764	13.250410	-22.339956	-22.321266	-17.219753	34.441032	-10.418633	3.115779	-28.491488	-3.716122	-36.690361	10.072421	-1.710192	12.129544	-9.666978	1.162444	-11.697349	35.576858	-8.122378	-2.295952	-22.278674	-4.309154	-47.856428
318	5.602399193548387	13.511630	-66.485263	-24.940515	15.394600	-53.521849	15.365670	-15.459344	-60.398994	-0.691846	20.805159	-26.605403	13.989340	-22.237172	-22.300097	-16.705307	34.457695	-10.334242	3.604757	-27.683229	-3.847016	-36.654959	10.072415	-1.683881	12.130667	-9.666748	1.135351	-11.698270	35.608570	-7.997144	-1.911585	-21.098608	-4.609780	-47.780461
319	5.620016801075269	13.518809	-66.669945	-23.825998	15.390585	-53.580788	16.150544	-15.422619	-60.517844	-0.297696	20.806600	-26.664294	14.208947	-22.225959	-22.382856	-16.557811	34.444427	-10.365786	3.540685	-26.939777	-4.301404	-36.539338	10.070551	-1.658190	12.140285	-9.663775	1.110935	-11.707377	35.584514	-7.993971	-2.005169	-19.820435	-5.109253	-47.664500
320	5.637634408602151	13.540660	-66.668581	-23.967381	15.318290	-53.572574	16.007347	-15.415997	-60.513802	-0.368829	20.849605	-26.633170	14.170478	-21.924912	-22.356423	-17.127119	34.502642	-10.336891	3.556850	-25.652304	-4.317453	-37.225667	10.054401	-1.649309	12.152751	-9.645406	1.103305	-11.717553	35.612321	-7.946515	-1.954892	-18.342909	-5.189486	-48.255241
321	5.655252016129032	13.548801	-66.578460	-23.882524	15.106742	-53.396257	16.112923	-15.441149	-60.396825	-0.442916	20.857835	-26.206955	14.638411	-21.930965	-22.287381	-17.114243	34.746919	-9.771967	4.191641	-25.296573	-4.278686	-37.175977	10.046750	-1.633319	12.163300	-9.636607	1.088057	-11.726467	35.916157	-7.377538	-1.270799	-17.818951	-5.161903	-48.199818
